<svg width="22" height="21" viewBox="0 0 22 21" fill="none" xmlns="http://www.w3.org/2000/svg">
<path fill-rule="evenodd" clip-rule="evenodd" d="M2.34152 4.97881C2.07104 4.89093 1.78638 5.06695 1.74415 5.34821L1.23752 8.723C1.16495 9.20643 1.45251 9.67146 1.91742 9.82252L19.1767 15.4304C19.9832 15.6924 20.8494 15.2511 21.1114 14.4446C21.3838 13.6063 20.896 12.7113 20.0439 12.4858L14.7322 11.0804L13.4041 1.70726C13.349 1.31835 13.0772 0.9948 12.7037 0.873422C12.0777 0.670029 11.4244 1.09884 11.362 1.75407L10.6019 9.7384L3.34571 7.79585L2.64239 5.29207C2.60078 5.14392 2.48787 5.02637 2.34152 4.97881ZM21.1776 18.4521H0.647583V20.0313H21.1776V18.4521Z" fill="#6E7491"/>
</svg>
